<svg width="77" height="87" viewBox="0 0 77 87" fill="none" xmlns="http://www.w3.org/2000/svg">
<path d="M47.1057 0L58.7657 18.0886L66.4547 15.1861L73.4727 37.9146H77V86.6271H0V37.9146H1.87V37.874L4.246 37.8984L47.1057 0ZM28.9557 37.9146H65.725L61.9227 25.6025L56.342 27.5794L28.9557 37.9146ZM23.243 31.4886L51.5167 20.8246L45.6353 11.691L23.243 31.4886ZM14.6667 46.0333H7.33333V54.1521C9.27825 54.1521 11.1435 53.2967 12.5188 51.7742C13.8941 50.2516 14.6667 48.1866 14.6667 46.0333ZM51.3333 62.2709C51.3333 60.4051 51.0014 58.5575 50.3565 56.8338C49.7115 55.11 48.7662 53.5437 47.5745 52.2244C46.3829 50.9051 44.9681 49.8586 43.4111 49.1445C41.8541 48.4305 40.1853 48.063 38.5 48.063C36.8147 48.063 35.1459 48.4305 33.5889 49.1445C32.0319 49.8586 30.6171 50.9051 29.4255 52.2244C28.2338 53.5437 27.2885 55.11 26.6435 56.8338C25.9986 58.5575 25.6667 60.4051 25.6667 62.2709C25.6667 66.039 27.0187 69.6528 29.4255 72.3173C31.8322 74.9818 35.0964 76.4787 38.5 76.4787C41.9036 76.4787 45.1678 74.9818 47.5745 72.3173C49.9813 69.6528 51.3333 66.039 51.3333 62.2709ZM69.6667 78.5084V70.3896C67.7217 70.3896 65.8565 71.245 64.4812 72.7675C63.106 74.2901 62.3333 76.3551 62.3333 78.5084H69.6667ZM62.3333 46.0333C62.3333 48.1866 63.106 50.2516 64.4812 51.7742C65.8565 53.2967 67.7217 54.1521 69.6667 54.1521V46.0333H62.3333ZM7.33333 78.5084H14.6667C14.6667 76.3551 13.8941 74.2901 12.5188 72.7675C11.1435 71.245 9.27825 70.3896 7.33333 70.3896V78.5084Z" fill="#3082FE"/>
</svg>
