<svg width="77" height="77" viewBox="0 0 77 77" fill="none" xmlns="http://www.w3.org/2000/svg">
<path d="M70.3106 33.2736L33.5816 72.1586C32.3546 73.4573 30.7174 74.2932 28.946 74.5256C27.1745 74.7579 25.3771 74.3725 23.8567 73.4342C22.3363 72.496 21.1858 71.0623 20.5991 69.3747C20.0125 67.6871 20.0255 65.8489 20.636 64.1699L26.4688 48.125H12.8831C11.5641 48.125 10.2652 47.8018 9.10013 47.1835C7.93502 46.5653 6.93919 45.6709 6.1998 44.5787C5.4604 43.4864 4.99997 42.2296 4.8588 40.9182C4.71763 39.6068 4.90002 38.2808 5.39002 37.0562L16.5695 9.11006C17.3631 7.13301 18.7296 5.43837 20.4936 4.24381C22.2576 3.04925 24.3384 2.40933 26.4688 2.40625H45.7188C50.3773 2.40625 53.5968 7.05994 51.9654 11.4201L48.125 21.6562H65.3008C66.6464 21.6562 67.9625 22.0503 69.0866 22.79C70.2107 23.5296 71.0934 24.5823 71.6258 25.8181C72.1582 27.0539 72.3169 28.4186 72.0823 29.7436C71.8478 31.0685 71.235 32.2958 70.3106 33.2736Z" fill="#3082FE"/>
</svg>
