<svg width="77" height="77" viewBox="0 0 77 77" fill="none" xmlns="http://www.w3.org/2000/svg">
<mask id="mask0_25_213" style="mask-type:luminance" maskUnits="userSpaceOnUse" x="7" y="11" width="63" height="55">
<path d="M30.4792 48.1251V52.9376C30.4792 55.9157 29.2961 58.7719 27.1903 60.8778C25.0844 62.9837 22.2282 64.1667 19.25 64.1667C16.2719 64.1667 13.4157 62.9837 11.3098 60.8778C9.20394 58.7719 8.02087 55.9157 8.02087 52.9376V30.4792M46.5209 48.1251V52.9376C46.5209 55.9157 47.7039 58.7719 49.8098 60.8778C51.9157 62.9837 54.7719 64.1667 57.75 64.1667C60.7282 64.1667 63.5844 62.9837 65.6903 60.8778C67.7961 58.7719 68.9792 55.9157 68.9792 52.9376V30.4792" stroke="white" stroke-width="2" stroke-linecap="round" stroke-linejoin="round"/>
<path d="M51.3334 12.8334H25.6667C15.9212 12.8334 8.02087 20.7337 8.02087 30.4792C8.02087 40.2247 15.9212 48.125 25.6667 48.125H51.3334C61.0789 48.125 68.9792 40.2247 68.9792 30.4792C68.9792 20.7337 61.0789 12.8334 51.3334 12.8334Z" fill="white" stroke="white" stroke-width="2"/>
<path d="M33.6876 30.4792H20.8542M27.2709 24.0625V36.8958" stroke="black" stroke-width="2" stroke-linecap="round" stroke-linejoin="round"/>
<path d="M57.75 27.2708C57.75 25.4989 56.3136 24.0625 54.5417 24.0625C52.7698 24.0625 51.3334 25.4989 51.3334 27.2708C51.3334 29.0427 52.7698 30.4792 54.5417 30.4792C56.3136 30.4792 57.75 29.0427 57.75 27.2708Z" fill="black"/>
<path d="M51.3334 35.2917C51.3334 33.5198 49.897 32.0834 48.1251 32.0834C46.3532 32.0834 44.9167 33.5198 44.9167 35.2917C44.9167 37.0636 46.3532 38.5 48.1251 38.5C49.897 38.5 51.3334 37.0636 51.3334 35.2917Z" fill="black"/>
</mask>
<g mask="url(#mask0_25_213)">
<path d="M0 0H77V77H0V0Z" fill="#3082FE"/>
</g>
</svg>
