<svg width="36" height="32" viewBox="0 0 36 32" fill="none" xmlns="http://www.w3.org/2000/svg">
<path d="M2.00001 31.1978C1.43334 31.1978 0.958673 30.9482 0.576007 30.449C0.19334 29.9499 0.00134023 29.3329 6.89654e-06 28.598C-0.00132644 27.8631 0.190674 27.2461 0.576007 26.7469C0.96134 26.2477 1.43601 25.9982 2.00001 25.9982H34C34.5667 25.9982 35.042 26.2477 35.426 26.7469C35.81 27.2461 36.0013 27.8631 36 28.598C35.9987 29.3329 35.8067 29.9507 35.424 30.4516C35.0413 30.9525 34.5667 31.2013 34 31.1978H2.00001ZM2.00001 18.1987C1.43334 18.1987 0.958673 17.9491 0.576007 17.45C0.19334 16.9508 0.00134023 16.3338 6.89654e-06 15.5989C-0.00132644 14.864 0.190674 14.247 0.576007 13.7478C0.96134 13.2487 1.43601 12.9991 2.00001 12.9991H34C34.5667 12.9991 35.042 13.2487 35.426 13.7478C35.81 14.247 36.0013 14.864 36 15.5989C35.9987 16.3338 35.8067 16.9517 35.424 17.4526C35.0413 17.9535 34.5667 18.2022 34 18.1987H2.00001ZM2.00001 5.19963C1.43334 5.19963 0.958673 4.95005 0.576007 4.45088C0.19334 3.95172 0.00134023 3.3347 6.89654e-06 2.59982C-0.00132644 1.86493 0.190674 1.24791 0.576007 0.748747C0.96134 0.249583 1.43601 0 2.00001 0H34C34.5667 0 35.042 0.249583 35.426 0.748747C35.81 1.24791 36.0013 1.86493 36 2.59982C35.9987 3.3347 35.8067 3.95259 35.424 4.45348C35.0413 4.95438 34.5667 5.2031 34 5.19963H2.00001Z" fill="#E6E6E6"/>
</svg>
