<svg width="24" height="24" viewBox="0 0 24 24" fill="none" xmlns="http://www.w3.org/2000/svg">
<path d="M11.6667 0C11.9761 0 12.2728 0.122916 12.4916 0.341709C12.7104 0.560501 12.8333 0.857247 12.8333 1.16667C12.8333 1.47609 12.7104 1.77283 12.4916 1.99162C12.2728 2.21042 11.9761 2.33333 11.6667 2.33333C9.82071 2.33333 8.0162 2.88072 6.48134 3.90628C4.94649 4.93184 3.75021 6.38951 3.04379 8.09496C2.33737 9.8004 2.15254 11.677 2.51267 13.4875C2.8728 15.298 3.76171 16.961 5.067 18.2663C6.37229 19.5716 8.03534 20.4605 9.84582 20.8207C11.6563 21.1808 13.5329 20.996 15.2384 20.2895C16.9438 19.5831 18.4015 18.3868 19.427 16.852C20.4526 15.3171 21 13.5126 21 11.6667C21 11.3572 21.1229 11.0605 21.3417 10.8417C21.5605 10.6229 21.8572 10.5 22.1667 10.5C22.4761 10.5 22.7728 10.6229 22.9916 10.8417C23.2104 11.0605 23.3333 11.3572 23.3333 11.6667C23.3333 18.1102 18.1102 23.3333 11.6667 23.3333C5.22317 23.3333 0 18.1102 0 11.6667C0 5.22317 5.22317 0 11.6667 0ZM11.6667 4.66667C11.9761 4.66667 12.2728 4.78958 12.4916 5.00838C12.7104 5.22717 12.8333 5.52391 12.8333 5.83333C12.8333 6.14275 12.7104 6.4395 12.4916 6.65829C12.2728 6.87708 11.9761 7 11.6667 7C10.7437 7 9.84144 7.2737 9.07401 7.78648C8.30658 8.29926 7.70844 9.02809 7.35523 9.88081C7.00202 10.7335 6.9096 11.6718 7.08967 12.5771C7.26973 13.4823 7.71419 14.3139 8.36684 14.9665C9.01948 15.6191 9.851 16.0636 10.7562 16.2437C11.6615 16.4237 12.5998 16.3313 13.4525 15.9781C14.3052 15.6249 15.0341 15.0268 15.5469 14.2593C16.0596 13.4919 16.3333 12.5896 16.3333 11.6667C16.3333 11.3572 16.4562 11.0605 16.675 10.8417C16.8938 10.6229 17.1906 10.5 17.5 10.5C17.8094 10.5 18.1062 10.6229 18.325 10.8417C18.5438 11.0605 18.6667 11.3572 18.6667 11.6667C18.6667 13.0511 18.2561 14.4045 17.487 15.5557C16.7178 16.7068 15.6245 17.604 14.3455 18.1338C13.0664 18.6636 11.6589 18.8023 10.301 18.5322C8.94317 18.2621 7.69589 17.5954 6.71692 16.6164C5.73795 15.6374 5.07127 14.3902 4.80117 13.0323C4.53107 11.6744 4.6697 10.267 5.19951 8.98788C5.72932 7.7088 6.62653 6.61555 7.77768 5.84638C8.92882 5.07721 10.2822 4.66667 11.6667 4.66667ZM19.3328 0.116667C19.4875 0.116667 19.6359 0.178125 19.7453 0.287521C19.8547 0.396917 19.9162 0.54529 19.9162 0.7V2.835C19.9165 2.98951 19.9781 3.13758 20.0874 3.24673C20.1968 3.35587 20.345 3.41717 20.4995 3.41717H22.6333C22.788 3.41717 22.9364 3.47863 23.0458 3.58802C23.1552 3.69742 23.2167 3.84579 23.2167 4.0005V5.068L21.014 7.27067C20.5765 7.70828 19.9831 7.9542 19.3643 7.95433H17.031L12.4927 12.4915C12.2726 12.704 11.9779 12.8216 11.672 12.819C11.3661 12.8163 11.0735 12.6936 10.8572 12.4773C10.6409 12.261 10.5182 11.9684 10.5155 11.6625C10.5129 11.3566 10.6305 11.0619 10.843 10.8418L15.3813 6.30467V3.97133C15.3812 3.35271 15.6266 2.75934 16.0638 2.32167L18.2688 0.116667H19.3328Z" fill="black"/>
</svg>
