<svg width="33" height="34" viewBox="0 0 33 34" fill="none" xmlns="http://www.w3.org/2000/svg">
<path d="M29.3333 0C30.3058 0 31.2384 0.395088 31.9261 1.09835C32.6137 1.80161 33 2.75544 33 3.75V30C33 30.9946 32.6137 31.9484 31.9261 32.6516C31.2384 33.3549 30.3058 33.75 29.3333 33.75H3.66667C2.69421 33.75 1.76157 33.3549 1.07394 32.6516C0.386308 31.9484 0 30.9946 0 30V3.75C0 2.75544 0.386308 1.80161 1.07394 1.09835C1.76157 0.395088 2.69421 0 3.66667 0H29.3333ZM28.4167 29.0625V19.125C28.4167 17.5039 27.787 15.9491 26.6661 14.8028C25.5453 13.6565 24.0251 13.0125 22.44 13.0125C20.8817 13.0125 19.0667 13.9875 18.1867 15.45V13.3688H13.0717V29.0625H18.1867V19.8187C18.1867 18.375 19.3233 17.1938 20.735 17.1938C21.4157 17.1938 22.0686 17.4703 22.5499 17.9626C23.0313 18.4549 23.3017 19.1226 23.3017 19.8187V29.0625H28.4167ZM7.11333 10.425C7.9302 10.425 8.71361 10.0931 9.29122 9.50239C9.86884 8.91165 10.1933 8.11043 10.1933 7.275C10.1933 5.53125 8.81833 4.10625 7.11333 4.10625C6.2916 4.10625 5.50353 4.4401 4.92248 5.03436C4.34143 5.62861 4.015 6.4346 4.015 7.275C4.015 9.01875 5.40833 10.425 7.11333 10.425ZM9.66167 29.0625V13.3688H4.58333V29.0625H9.66167Z" fill="#E6E6E6"/>
</svg>
